<?xml version="1.0" encoding="UTF-8" standalone="no"?>
<!DOCTYPE svg PUBLIC "-//W3C//DTD SVG 1.1//EN" "http://www.w3.org/Graphics/SVG/1.1/DTD/svg11.dtd">
<svg width="100%" height="100%" viewBox="0 0 862 343" version="1.1" xmlns="http://www.w3.org/2000/svg" xmlns:xlink="http://www.w3.org/1999/xlink" xml:space="preserve" xmlns:serif="http://www.serif.com/" style="fill-rule:evenodd;clip-rule:evenodd;stroke-linejoin:round;stroke-miterlimit:2;">
    <g transform="matrix(3.3983,0,0,3.3983,0.952,-1.22)">
        <path d="M181.661,31.13L194.303,53.378C194.303,53.378 199.715,54.045 205.959,55.142C212.204,56.238 220.018,57.766 220.018,57.766L189.879,3.83L165.016,1.841L173.139,16.133L147.984,14.372L139.922,0.437L113.174,0.461L94.932,31.967L69.663,34.521L88.224,1.86L63.363,3.849L33.29,57.766C47.63,54.779 60.861,53.049 71.7,51.83C88.914,49.895 108.844,49.341 108.844,49.341L126.552,19.801L144.251,49.323C144.251,49.323 152.204,49.544 155.581,49.769C158.957,49.994 169.026,50.664 169.026,50.664L156.676,29.382L181.661,31.13Z" style="fill:rgb(0,136,206);fill-rule:nonzero;"/>
        <path d="M126.553,32.91L126.553,32.868L126.541,32.889L126.528,32.868L126.528,32.91L118.426,46.495C118.426,46.495 122.837,44.91 126.541,44.907C130.244,44.91 134.656,46.495 134.656,46.495L126.553,32.91Z" style="fill:rgb(0,136,206);fill-rule:nonzero;"/>
        <path d="M33.727,66.283L29.416,66.283L29.416,64.58L39.85,64.58L39.85,66.283L35.54,66.283L35.54,77.965L33.727,77.965L33.727,66.283Z" style="fill:white;fill-rule:nonzero;"/>
        <path d="M42.728,64.58L44.544,64.58L44.544,70.139L51.482,70.139L51.482,64.58L53.296,64.58L53.296,77.965L51.482,77.965L51.482,71.838L44.544,71.838L44.544,77.965L42.728,77.965L42.728,64.58Z" style="fill:white;fill-rule:nonzero;"/>
        <path d="M57.689,64.58L66.329,64.58L66.329,66.283L59.505,66.283L59.505,70.269L65.857,70.269L65.857,71.972L59.505,71.972L59.505,76.262L66.667,76.262L66.667,77.965L57.689,77.965L57.689,64.58Z" style="fill:white;fill-rule:nonzero;"/>
        <path d="M77.961,64.58L77.961,72.785C77.961,74.447 78.795,76.606 81.328,76.606C83.86,76.606 84.691,74.447 84.691,72.785L84.691,64.58L86.504,64.58L86.504,73.072C86.504,76.167 84.256,78.305 81.328,78.305C78.397,78.305 76.147,76.167 76.147,73.072L76.147,64.58L77.961,64.58Z" style="fill:white;fill-rule:nonzero;"/>
        <rect x="162.182" y="64.58" width="1.815" height="13.385" style="fill:white;"/>
        <path d="M171.181,66.283L166.872,66.283L166.872,64.58L177.309,64.58L177.309,66.283L172.995,66.283L172.995,77.965L171.181,77.965L171.181,66.283Z" style="fill:white;fill-rule:nonzero;"/>
        <path d="M183.342,72.257L178.276,64.58L180.604,64.58L184.25,70.459L188.012,64.58L190.224,64.58L185.155,72.257L185.155,77.965L183.342,77.965L183.342,72.257Z" style="fill:white;fill-rule:nonzero;"/>
        <path d="M198.078,71.272C198.078,67.303 200.971,64.242 205.053,64.242C209.135,64.242 212.027,67.303 212.027,71.272C212.027,75.244 209.135,78.305 205.053,78.305C200.971,78.305 198.078,75.244 198.078,71.272ZM210.1,71.272C210.1,68.344 208.114,65.942 205.053,65.942C201.991,65.942 200.004,68.344 200.004,71.272C200.004,74.201 201.991,76.602 205.053,76.602C208.114,76.602 210.1,74.201 210.1,71.272Z" style="fill:white;fill-rule:nonzero;"/>
        <path d="M215.588,64.58L224.002,64.58L224.002,66.283L217.405,66.283L217.405,70.479L223.548,70.479L223.548,72.18L217.405,72.18L217.405,77.965L215.588,77.965L215.588,64.58Z" style="fill:white;fill-rule:nonzero;"/>
        <path d="M5.894,87.279L0,100.661L2.115,100.661L3.437,97.353L9.807,97.353L11.147,100.661L13.266,100.661L7.54,87.279L5.894,87.279ZM6.612,89.621L6.652,89.621L9.147,95.763L4.081,95.763L6.612,89.621Z" style="fill:white;fill-rule:nonzero;"/>
        <path d="M15.958,87.279L17.773,87.279L17.773,98.957L23.916,98.957L23.916,100.661L15.958,100.661L15.958,87.279Z" style="fill:white;fill-rule:nonzero;"/>
        <path d="M30.917,87.279L32.559,87.279L38.289,100.661L36.173,100.661L34.829,97.352L28.459,97.352L27.136,100.661L25.019,100.661L30.917,87.279ZM34.167,95.763L31.672,89.621L31.634,89.621L29.1,95.763L34.167,95.763Z" style="fill:white;fill-rule:nonzero;"/>
        <path d="M40.981,87.279L45.629,87.279C47.954,87.279 49.693,88.352 49.693,90.623C49.693,92.153 48.748,93.119 47.39,93.571L47.39,93.608C48.995,93.724 50.282,95.142 50.282,96.937C50.282,99.335 48.18,100.661 45.571,100.661L40.981,100.661L40.981,87.279ZM42.794,92.834L45.27,92.834C46.653,92.834 47.767,92.285 47.767,90.828C47.767,89.769 47.103,88.866 45.649,88.866L42.794,88.866L42.794,92.834ZM42.794,99.074L45.46,99.074C46.556,99.074 48.351,98.695 48.351,96.803C48.351,95.218 47.237,94.424 45.478,94.424L42.794,94.424L42.794,99.074Z" style="fill:white;fill-rule:nonzero;"/>
        <path d="M58.037,87.279L59.682,87.279L65.408,100.661L63.294,100.661L61.95,97.352L55.581,97.352L54.257,100.661L52.139,100.661L58.037,87.279ZM61.289,95.763L58.793,89.621L58.753,89.621L56.219,95.763L61.289,95.763Z" style="fill:white;fill-rule:nonzero;"/>
        <path d="M67.968,87.279L70.672,87.279L74.925,97.409L74.998,97.409L79.216,87.279L81.919,87.279L81.919,100.661L80.102,100.661L80.102,89.658L80.068,89.658L75.546,100.661L74.338,100.661L69.822,89.658L69.783,89.658L69.783,100.661L67.968,100.661L67.968,87.279Z" style="fill:white;fill-rule:nonzero;"/>
        <path d="M90.652,64.58L93.035,64.58L100.407,75.58L100.445,75.58L100.445,64.58L102.259,64.58L102.259,77.965L99.956,77.965L92.508,66.963L92.47,66.963L92.47,77.965L90.652,77.965L90.652,64.58Z" style="fill:white;fill-rule:nonzero;"/>
        <rect x="106.655" y="64.58" width="1.813" height="13.385" style="fill:white;"/>
        <path d="M111.025,64.58L113.123,64.58L117.055,75.469L117.092,75.469L121.175,64.58L123.159,64.58L117.888,77.965L116.183,77.965L111.025,64.58Z" style="fill:white;fill-rule:nonzero;"/>
        <path d="M125.719,64.58L134.354,64.58L134.354,66.283L127.533,66.283L127.533,70.269L133.886,70.269L133.886,71.972L127.533,71.972L127.533,76.262L134.698,76.262L134.698,77.965L125.719,77.965L125.719,64.58Z" style="fill:white;fill-rule:nonzero;"/>
        <path d="M138.217,64.58L142.926,64.58C146.349,64.58 147.215,66.642 147.215,68.326C147.215,70.025 145.952,71.631 143.928,71.86L147.727,77.965L145.458,77.965L142.054,72.069L140.035,72.069L140.035,77.965L138.217,77.965L138.217,64.58ZM140.035,70.479L142.416,70.479C143.852,70.479 145.288,70.139 145.288,68.326C145.288,66.512 143.852,66.169 142.416,66.169L140.035,66.169L140.035,70.479Z" style="fill:white;fill-rule:nonzero;"/>
        <path d="M151.116,75.166C151.758,76.148 152.874,76.602 153.955,76.602C155.143,76.602 156.619,75.848 156.619,74.373C156.619,71.291 150.02,73.201 150.02,67.982C150.02,66.416 151.344,64.242 154.558,64.242C156.014,64.242 157.409,64.547 158.415,65.773L156.938,67.116C156.485,66.416 155.597,65.942 154.558,65.942C152.553,65.942 151.949,67.153 151.949,67.982C151.949,71.369 158.544,69.346 158.544,74.168C158.544,76.755 156.465,78.305 153.895,78.305C152.174,78.305 150.53,77.717 149.625,76.453L151.116,75.166Z" style="fill:white;fill-rule:nonzero;"/>
        <path d="M90.376,87.279L92.022,87.279L97.751,100.661L95.632,100.661L94.292,97.352L87.921,97.352L86.596,100.661L84.479,100.661L90.376,87.279ZM93.632,95.763L91.134,89.621L91.097,89.621L88.564,95.763L93.632,95.763Z" style="fill:white;fill-rule:nonzero;"/>
        <rect x="106.643" y="87.275" width="1.816" height="13.386" style="fill:white;"/>
        <path d="M112.848,87.279L115.232,87.279L122.602,98.28L122.64,98.28L122.64,87.279L124.454,87.279L124.454,100.661L122.148,100.661L114.702,89.658L114.662,89.658L114.662,100.661L112.848,100.661L112.848,87.279Z" style="fill:white;fill-rule:nonzero;"/>
        <path d="M135.051,87.279L136.866,87.279L136.866,92.834L143.805,92.834L143.805,87.279L145.619,87.279L145.619,100.661L143.805,100.661L143.805,94.537L136.866,94.537L136.866,100.661L135.051,100.661L135.051,87.279Z" style="fill:white;fill-rule:nonzero;"/>
        <path d="M151.581,87.279L151.581,95.48C151.581,97.143 152.413,99.297 154.945,99.297C157.477,99.297 158.309,97.143 158.309,95.48L158.309,87.279L160.124,87.279L160.124,95.763C160.124,98.864 157.876,101 154.945,101C152.014,101 149.766,98.864 149.766,95.763L149.766,87.279L151.581,87.279Z" style="fill:white;fill-rule:nonzero;"/>
        <path d="M164.272,87.279L166.655,87.279L174.025,98.28L174.063,98.28L174.063,87.279L175.879,87.279L175.879,100.661L173.571,100.661L166.124,89.658L166.085,89.658L166.085,100.661L164.272,100.661L164.272,87.279Z" style="fill:white;fill-rule:nonzero;"/>
        <path d="M183.069,88.977L178.76,88.977L178.76,87.275L189.194,87.275L189.194,88.977L184.883,88.977L184.883,100.659L183.069,100.659L183.069,88.977Z" style="fill:white;fill-rule:nonzero;"/>
        <path d="M192.47,97.861C193.113,98.844 194.228,99.297 195.305,99.297C196.498,99.297 197.971,98.542 197.971,97.068C197.971,93.985 191.374,95.897 191.374,90.68C191.374,89.109 192.696,86.936 195.909,86.936C197.367,86.936 198.765,87.238 199.766,88.469L198.295,89.811C197.837,89.109 196.95,88.637 195.909,88.637C193.907,88.637 193.303,89.845 193.303,90.68C193.303,94.06 199.902,92.042 199.902,96.858C199.902,99.451 197.819,101 195.25,101C193.528,101 191.885,100.412 190.978,99.146L192.47,97.861Z" style="fill:white;fill-rule:nonzero;"/>
        <path d="M201.702,87.279L203.797,87.279L207.733,98.164L207.768,98.164L211.853,87.279L213.833,87.279L208.563,100.661L206.86,100.661L201.702,87.279Z" style="fill:white;fill-rule:nonzero;"/>
        <rect x="216.397" y="87.275" width="1.814" height="13.386" style="fill:white;"/>
        <path d="M222.6,87.279L224.413,87.279L224.413,98.957L230.555,98.957L230.555,100.661L222.6,100.661L222.6,87.279Z" style="fill:white;fill-rule:nonzero;"/>
        <path d="M233.36,87.279L235.173,87.279L235.173,98.957L241.316,98.957L241.316,100.661L233.36,100.661L233.36,87.279Z" style="fill:white;fill-rule:nonzero;"/>
        <path d="M244.12,87.279L252.76,87.279L252.76,88.979L245.934,88.979L245.934,92.965L252.286,92.965L252.286,94.667L245.934,94.667L245.934,98.957L253.096,98.957L253.096,100.661L244.12,100.661L244.12,87.279Z" style="fill:white;fill-rule:nonzero;"/>
    </g>
</svg>
