<?xml version="1.0" encoding="UTF-8" standalone="no"?>
<!DOCTYPE svg PUBLIC "-//W3C//DTD SVG 1.1//EN" "http://www.w3.org/Graphics/SVG/1.1/DTD/svg11.dtd">
<svg width="100%" height="100%" viewBox="0 0 392 92" version="1.1" xmlns="http://www.w3.org/2000/svg" xmlns:xlink="http://www.w3.org/1999/xlink" xml:space="preserve" xmlns:serif="http://www.serif.com/" style="fill-rule:evenodd;clip-rule:evenodd;stroke-linejoin:round;stroke-miterlimit:2;">
    <g transform="matrix(1,0,0,1,-1986,-440)">
        <g transform="matrix(1.07873,0,0,1.17291,-129.9,408.915)">
            <g transform="matrix(0.829498,0,0,0.762889,110.743,-12.3852)">
                <g id="logo" transform="matrix(0.528871,0,0,0.528871,2039.7,-302.361)">
                    <g transform="matrix(1,0,0,1,193.683,0)">
                        <path d="M477.553,782.183L556.819,782.183L556.819,793.432L477.553,793.432L477.553,782.183ZM550.492,734.202L490.208,734.202L490.208,766.923L477.553,766.923L477.553,723.129L550.492,723.129L550.492,734.202ZM554.71,680.245L490.208,680.245L490.208,707.869L477.553,707.869L477.553,668.996L554.71,668.996L554.71,680.245Z" style="fill:rgb(234,245,255);"/>
                    </g>
                    <path d="M477.553,782.183L556.819,782.183L556.819,793.432L477.553,793.432L477.553,782.183ZM550.492,734.202L490.208,734.202L490.208,766.923L477.553,766.923L477.553,723.129L550.492,723.129L550.492,734.202ZM554.71,680.245L490.208,680.245L490.208,707.869L477.553,707.869L477.553,668.996L554.71,668.996L554.71,680.245Z" style="fill:rgb(234,245,255);"/>
                    <path d="M404.614,695.504L417.269,695.504L417.269,793.432L404.614,793.432L404.614,695.504ZM458.923,680.245L362.96,680.245L362.96,668.996L458.923,668.996L458.923,680.245Z" style="fill:rgb(234,245,255);"/>
                    <path d="M581.601,782.183L652.255,782.183L652.255,793.432L581.601,793.432L581.601,782.183ZM594.255,766.923L581.601,766.923L581.601,668.996L594.255,668.996L594.255,766.923Z" style="fill:rgb(234,245,255);"/>
                    <path d="M775.284,709.627L775.284,668.996L810.435,668.996C816.763,668.996 822.504,669.67 827.659,671.017C832.815,672.365 837.238,674.415 840.929,677.169C844.62,679.922 847.461,683.379 849.453,687.538C851.445,691.698 852.441,696.59 852.441,702.214C852.441,707.838 851.416,712.73 849.365,716.89C847.315,721.049 844.444,724.506 840.753,727.259C837.062,730.013 832.61,732.093 827.396,733.499C822.182,734.905 816.411,735.608 810.084,735.608L787.939,735.608L787.939,793.432L775.284,793.432L775.284,724.887L809.381,724.887C819.34,724.887 826.898,722.953 832.053,719.087C837.209,715.22 839.787,709.596 839.787,702.214C839.787,694.481 837.121,688.827 831.79,685.254C826.458,681.68 818.989,679.893 809.381,679.893L787.939,679.893L787.939,709.627L775.284,709.627Z" style="fill:rgb(234,245,255);"/>
                    <path d="M916.806,668.996L872.862,776.368L865.799,793.432L851.914,793.432L905.695,668.996L916.806,668.996ZM919.594,702.577L925.852,687.287L971.428,793.432L957.367,793.432L943.659,760.741L895.79,760.741L900.537,749.141L938.913,749.141L919.594,702.577Z" style="fill:rgb(234,245,255);"/>
                    <path d="M1002.36,793.432L989.707,793.432L989.707,668.996L1026.26,668.996C1032.36,668.996 1038.01,669.582 1043.22,670.754C1048.44,671.925 1052.95,673.829 1056.76,676.466C1060.57,679.102 1063.52,682.529 1065.63,686.748C1067.74,690.966 1068.8,696.121 1068.8,702.214C1068.8,706.784 1067.98,710.943 1066.34,714.693C1064.7,718.442 1062.47,721.694 1059.66,724.447C1056.85,727.201 1053.51,729.398 1049.64,731.038C1045.77,732.678 1041.56,733.733 1036.99,734.202L1073.37,793.432L1057.9,793.432L1053.65,786.253L1018.81,724.359L1024.33,724.359C1034.52,724.359 1042.38,722.514 1047.88,718.823C1053.39,715.132 1056.14,709.596 1056.14,702.214C1056.14,698.113 1055.38,694.657 1053.86,691.844C1052.33,689.032 1050.22,686.748 1047.53,684.99C1044.84,683.232 1041.56,681.944 1037.69,681.123C1033.82,680.303 1029.55,679.893 1024.86,679.893L1002.36,679.893L1002.36,724.359L1002.38,724.359C1002.38,724.567 1002.39,724.774 1002.4,724.982C1002.49,726.014 1002.56,726.573 1003.36,728.112L1007.38,735.256L1002.36,735.256L1002.36,793.432Z" style="fill:rgb(234,245,255);"/>
                    <path d="M1107.64,724.789L1107.64,724.887L1107.82,724.887L1167.05,668.996L1185.15,668.996L1122.4,725.414L1188.66,793.432L1170.03,793.432L1107.82,727.171L1107.64,727.171L1107.64,793.432L1094.99,793.432L1094.99,737.443L1107.64,724.789ZM1107.64,703.151L1094.99,715.806L1094.99,668.996L1107.64,668.996L1107.64,703.151Z" style="fill:rgb(234,245,255);"/>
                </g>
                <g transform="matrix(0.529589,0,0,0.529589,1557.06,57.427)">
                    <path d="M1288.16,144.55L1300.18,144.55C1304.19,144.55 1307.34,145.466 1309.62,147.298C1311.91,149.13 1313.05,151.749 1313.05,155.154C1313.05,158.689 1311.87,161.394 1309.5,163.269C1307.12,165.144 1303.96,166.081 1299.99,166.081L1294.37,166.081L1294.37,179.207L1288.16,179.207L1288.16,144.55ZM1294.37,161.038L1299.6,161.038C1301.8,161.038 1303.56,160.564 1304.87,159.615C1306.19,158.667 1306.84,157.223 1306.84,155.283C1306.84,153.473 1306.24,152.094 1305.03,151.145C1303.83,150.197 1302.1,149.723 1299.86,149.723L1294.37,149.723L1294.37,161.038Z" style="fill:rgb(234,245,255);"/>
                    <path d="M1319.78,179.207L1313.25,179.207L1327.99,144.55L1333.74,144.55L1348.42,179.207L1341.69,179.207L1338.46,171.189L1323.07,171.189L1319.78,179.207ZM1324.95,166.211L1336.52,166.211L1330.77,151.662L1324.95,166.211Z" style="fill:rgb(234,245,255);"/>
                    <path d="M1360.25,179.207L1354.05,179.207L1354.05,144.55L1366.39,144.55C1368.12,144.55 1369.75,144.712 1371.28,145.035C1372.81,145.358 1374.15,145.886 1375.32,146.619C1376.48,147.352 1377.4,148.343 1378.07,149.593C1378.73,150.843 1379.07,152.374 1379.07,154.184C1379.07,156.727 1378.37,158.796 1376.97,160.391C1375.57,161.986 1373.74,163.085 1371.5,163.689L1380.49,179.207L1373.31,179.207L1365.23,164.594L1360.25,164.594L1360.25,179.207ZM1360.25,159.551L1365.62,159.551C1366.57,159.551 1367.47,159.465 1368.33,159.292C1369.2,159.12 1369.96,158.829 1370.63,158.419C1371.3,158.01 1371.83,157.482 1372.21,156.835C1372.6,156.189 1372.8,155.37 1372.8,154.378C1372.8,153.473 1372.61,152.719 1372.25,152.115C1371.88,151.512 1371.38,151.027 1370.76,150.66C1370.13,150.294 1369.41,150.046 1368.59,149.917C1367.77,149.787 1366.91,149.723 1366.01,149.723L1360.25,149.723L1360.25,159.551Z" style="fill:rgb(234,245,255);"/>
                    <path d="M1394.2,159.357L1394.33,159.357L1408.49,144.55L1416.76,144.55L1400.53,160.521L1417.67,179.207L1409.2,179.207L1394.33,162.072L1394.2,162.072L1394.2,179.207L1387.99,179.207L1387.99,144.55L1394.2,144.55L1394.2,159.357Z" style="fill:rgb(234,245,255);"/>
                    <rect x="1423.1" y="144.55" width="6.207" height="34.657" style="fill:rgb(234,245,255);"/>
                    <path d="M1463.12,170.801L1463.25,170.801L1463.25,144.55L1469.27,144.55L1469.27,179.207L1461.89,179.207L1446.31,153.085L1446.18,153.085L1446.18,179.207L1440.17,179.207L1440.17,144.55L1447.67,144.55L1463.12,170.801Z" style="fill:rgb(234,245,255);"/>
                    <path d="M1505.54,152.762C1504.55,151.641 1503.29,150.757 1501.76,150.111C1500.23,149.464 1498.54,149.141 1496.68,149.141C1494.83,149.141 1493.17,149.464 1491.7,150.111C1490.24,150.757 1488.99,151.652 1487.95,152.794C1486.92,153.936 1486.12,155.283 1485.56,156.835C1485,158.387 1484.72,160.046 1484.72,161.814C1484.72,163.581 1485.01,165.241 1485.59,166.792C1486.17,168.344 1486.99,169.702 1488.05,170.866C1489.11,172.03 1490.39,172.946 1491.9,173.614C1493.4,174.282 1495.09,174.616 1496.94,174.616C1499.65,174.616 1501.98,174.164 1503.92,173.258L1503.92,164.723L1496.62,164.723L1496.62,159.68L1510.13,159.68L1510.13,177.009C1508.28,178 1506.24,178.765 1504.02,179.304C1501.8,179.843 1499.4,180.112 1496.81,180.112C1494.05,180.112 1491.52,179.659 1489.21,178.754C1486.91,177.849 1484.93,176.588 1483.3,174.972C1481.66,173.355 1480.38,171.426 1479.45,169.185C1478.52,166.943 1478.06,164.486 1478.06,161.814C1478.06,159.098 1478.53,156.62 1479.48,154.378C1480.43,152.137 1481.72,150.229 1483.36,148.656C1485,147.082 1486.95,145.854 1489.21,144.97C1491.48,144.087 1493.94,143.645 1496.62,143.645C1499.42,143.645 1501.95,144.076 1504.21,144.938C1506.48,145.8 1508.36,146.921 1509.87,148.3L1505.54,152.762Z" style="fill:rgb(234,245,255);"/>
                    <path d="M1542.91,179.207L1536.7,179.207L1536.7,144.55L1549.05,144.55C1550.78,144.55 1552.41,144.712 1553.94,145.035C1555.47,145.358 1556.81,145.886 1557.98,146.619C1559.14,147.352 1560.06,148.343 1560.73,149.593C1561.39,150.843 1561.73,152.374 1561.73,154.184C1561.73,156.727 1561.03,158.796 1559.63,160.391C1558.23,161.986 1556.4,163.085 1554.16,163.689L1563.15,179.207L1555.97,179.207L1547.89,164.594L1542.91,164.594L1542.91,179.207ZM1542.91,159.551L1548.28,159.551C1549.23,159.551 1550.13,159.465 1550.99,159.292C1551.86,159.12 1552.62,158.829 1553.29,158.419C1553.96,158.01 1554.49,157.482 1554.87,156.835C1555.26,156.189 1555.46,155.37 1555.46,154.378C1555.46,153.473 1555.27,152.719 1554.91,152.115C1554.54,151.512 1554.04,151.027 1553.42,150.66C1552.79,150.294 1552.07,150.046 1551.25,149.917C1550.43,149.787 1549.57,149.723 1548.67,149.723L1542.91,149.723L1542.91,159.551Z" style="fill:rgb(234,245,255);"/>
                    <path d="M1575.63,173.97L1593.28,173.97L1593.28,179.207L1569.49,179.207L1569.49,144.55L1592.51,144.55L1592.51,149.723L1575.63,149.723L1575.63,158.84L1591.6,158.84L1591.6,163.818L1575.63,163.818L1575.63,173.97Z" style="fill:rgb(234,245,255);"/>
                    <path d="M1619.27,152.115C1618.54,151.167 1617.57,150.402 1616.36,149.82C1615.16,149.238 1613.86,148.947 1612.48,148.947C1610.93,148.947 1609.61,149.346 1608.51,150.143C1607.41,150.94 1606.86,152.094 1606.86,153.602C1606.86,154.378 1607,155.035 1607.28,155.574C1607.56,156.113 1607.97,156.576 1608.51,156.964C1609.05,157.352 1609.7,157.708 1610.48,158.031C1611.26,158.355 1612.14,158.667 1613.13,158.969C1614.34,159.357 1615.56,159.809 1616.78,160.327C1618.01,160.844 1619.11,161.491 1620.08,162.266C1621.05,163.042 1621.84,164.001 1622.44,165.144C1623.05,166.286 1623.35,167.676 1623.35,169.314C1623.35,171.168 1623.02,172.773 1622.38,174.131C1621.73,175.489 1620.85,176.61 1619.73,177.493C1618.61,178.377 1617.31,179.034 1615.85,179.466C1614.38,179.897 1612.81,180.112 1611.13,180.112C1608.67,180.112 1606.37,179.638 1604.24,178.69C1602.11,177.741 1600.37,176.427 1599.04,174.745L1603.3,170.801C1604.34,172.181 1605.59,173.172 1607.05,173.776C1608.52,174.379 1609.92,174.681 1611.26,174.681C1612.89,174.681 1614.31,174.304 1615.49,173.549C1616.68,172.795 1617.27,171.642 1617.27,170.09C1617.27,168.366 1616.61,167.073 1615.3,166.211C1613.98,165.348 1612.12,164.551 1609.7,163.818C1608.58,163.473 1607.48,163.064 1606.41,162.59C1605.33,162.116 1604.37,161.512 1603.53,160.779C1602.69,160.046 1602.01,159.141 1601.49,158.064C1600.98,156.986 1600.72,155.65 1600.72,154.055C1600.72,152.287 1601.06,150.746 1601.75,149.432C1602.44,148.117 1603.36,147.029 1604.5,146.166C1605.64,145.304 1606.94,144.669 1608.41,144.259C1609.88,143.85 1611.36,143.645 1612.87,143.645C1615.03,143.645 1616.99,144.033 1618.76,144.809C1620.52,145.585 1622.01,146.641 1623.22,147.977L1619.27,152.115Z" style="fill:rgb(234,245,255);"/>
                    <path d="M1638.48,173.97L1656.13,173.97L1656.13,179.207L1632.33,179.207L1632.33,144.55L1655.35,144.55L1655.35,149.723L1638.48,149.723L1638.48,158.84L1654.45,158.84L1654.45,163.818L1638.48,163.818L1638.48,173.97Z" style="fill:rgb(234,245,255);"/>
                    <path d="M1671.32,179.207L1665.12,179.207L1665.12,144.55L1677.47,144.55C1679.19,144.55 1680.82,144.712 1682.35,145.035C1683.88,145.358 1685.23,145.886 1686.39,146.619C1687.55,147.352 1688.47,148.343 1689.14,149.593C1689.81,150.843 1690.14,152.374 1690.14,154.184C1690.14,156.727 1689.44,158.796 1688.04,160.391C1686.64,161.986 1684.82,163.085 1682.57,163.689L1691.56,179.207L1684.38,179.207L1676.3,164.594L1671.32,164.594L1671.32,179.207ZM1671.32,159.551L1676.69,159.551C1677.64,159.551 1678.54,159.465 1679.4,159.292C1680.27,159.12 1681.03,158.829 1681.7,158.419C1682.37,158.01 1682.9,157.482 1683.29,156.835C1683.67,156.189 1683.87,155.37 1683.87,154.378C1683.87,153.473 1683.68,152.719 1683.32,152.115C1682.95,151.512 1682.45,151.027 1681.83,150.66C1681.2,150.294 1680.48,150.046 1679.66,149.917C1678.85,149.787 1677.98,149.723 1677.08,149.723L1671.32,149.723L1671.32,159.551Z" style="fill:rgb(234,245,255);"/>
                    <path d="M1709.92,171.06L1710.12,171.06L1719.82,144.55L1726.35,144.55L1712.64,179.207L1707.08,179.207L1693.5,144.55L1700.23,144.55L1709.92,171.06Z" style="fill:rgb(234,245,255);"/>
                    <path d="M1731.78,179.207L1725.25,179.207L1739.99,144.55L1745.75,144.55L1760.42,179.207L1753.7,179.207L1750.47,171.189L1735.08,171.189L1731.78,179.207ZM1736.95,166.211L1748.53,166.211L1742.77,151.662L1736.95,166.211Z" style="fill:rgb(234,245,255);"/>
                    <path d="M1776.39,179.207L1770.19,179.207L1770.19,149.723L1759.58,149.723L1759.58,144.55L1787.13,144.55L1787.13,149.723L1776.39,149.723L1776.39,179.207Z" style="fill:rgb(234,245,255);"/>
                    <rect x="1793.08" y="144.55" width="6.207" height="34.657" style="fill:rgb(234,245,255);"/>
                    <path d="M1845.38,161.814C1845.38,164.486 1844.91,166.943 1843.96,169.185C1843.01,171.426 1841.7,173.355 1840.02,174.972C1838.34,176.588 1836.35,177.849 1834.07,178.754C1831.78,179.659 1829.31,180.112 1826.63,180.112C1824,180.112 1821.56,179.659 1819.29,178.754C1817.03,177.849 1815.07,176.588 1813.41,174.972C1811.75,173.355 1810.45,171.426 1809.5,169.185C1808.55,166.943 1808.08,164.486 1808.08,161.814C1808.08,159.098 1808.55,156.62 1809.5,154.378C1810.45,152.137 1811.75,150.229 1813.41,148.656C1815.07,147.082 1817.03,145.854 1819.29,144.97C1821.56,144.087 1824,143.645 1826.63,143.645C1829.31,143.645 1831.78,144.087 1834.07,144.97C1836.35,145.854 1838.34,147.082 1840.02,148.656C1841.7,150.229 1843.01,152.137 1843.96,154.378C1844.91,156.62 1845.38,159.098 1845.38,161.814ZM1838.72,161.814C1838.72,160.003 1838.44,158.333 1837.88,156.803C1837.32,155.273 1836.51,153.936 1835.46,152.794C1834.4,151.652 1833.13,150.757 1831.64,150.111C1830.16,149.464 1828.49,149.141 1826.63,149.141C1824.82,149.141 1823.18,149.464 1821.72,150.111C1820.25,150.757 1819,151.652 1817.97,152.794C1816.93,153.936 1816.14,155.273 1815.58,156.803C1815.02,158.333 1814.74,160.003 1814.74,161.814C1814.74,163.624 1815.02,165.316 1815.58,166.889C1816.14,168.463 1816.93,169.821 1817.97,170.963C1819,172.105 1820.25,173 1821.72,173.646C1823.18,174.293 1824.82,174.616 1826.63,174.616C1828.49,174.616 1830.16,174.293 1831.64,173.646C1833.13,173 1834.4,172.105 1835.46,170.963C1836.51,169.821 1837.32,168.463 1837.88,166.889C1838.44,165.316 1838.72,163.624 1838.72,161.814Z" style="fill:rgb(234,245,255);"/>
                    <path d="M1877.13,170.801L1877.26,170.801L1877.26,144.55L1883.27,144.55L1883.27,179.207L1875.9,179.207L1860.32,153.085L1860.19,153.085L1860.19,179.207L1854.18,179.207L1854.18,144.55L1861.68,144.55L1877.13,170.801Z" style="fill:rgb(234,245,255);"/>
                    <path d="M1927.31,152.115C1926.57,151.167 1925.6,150.402 1924.4,149.82C1923.19,149.238 1921.9,148.947 1920.52,148.947C1918.97,148.947 1917.64,149.346 1916.54,150.143C1915.44,150.94 1914.89,152.094 1914.89,153.602C1914.89,154.378 1915.03,155.035 1915.31,155.574C1915.59,156.113 1916,156.576 1916.54,156.964C1917.08,157.352 1917.74,157.708 1918.51,158.031C1919.29,158.355 1920.17,158.667 1921.16,158.969C1922.37,159.357 1923.59,159.809 1924.82,160.327C1926.05,160.844 1927.14,161.491 1928.11,162.266C1929.08,163.042 1929.87,164.001 1930.47,165.144C1931.08,166.286 1931.38,167.676 1931.38,169.314C1931.38,171.168 1931.06,172.773 1930.41,174.131C1929.76,175.489 1928.88,176.61 1927.76,177.493C1926.64,178.377 1925.34,179.034 1923.88,179.466C1922.41,179.897 1920.84,180.112 1919.16,180.112C1916.7,180.112 1914.41,179.638 1912.27,178.69C1910.14,177.741 1908.4,176.427 1907.07,174.745L1911.34,170.801C1912.37,172.181 1913.62,173.172 1915.09,173.776C1916.55,174.379 1917.95,174.681 1919.29,174.681C1920.93,174.681 1922.34,174.304 1923.52,173.549C1924.71,172.795 1925.3,171.642 1925.3,170.09C1925.3,168.366 1924.64,167.073 1923.33,166.211C1922.01,165.348 1920.15,164.551 1917.74,163.818C1916.62,163.473 1915.52,163.064 1914.44,162.59C1913.36,162.116 1912.4,161.512 1911.56,160.779C1910.72,160.046 1910.04,159.141 1909.52,158.064C1909.01,156.986 1908.75,155.65 1908.75,154.055C1908.75,152.287 1909.09,150.746 1909.78,149.432C1910.47,148.117 1911.39,147.029 1912.53,146.166C1913.67,145.304 1914.98,144.669 1916.44,144.259C1917.91,143.85 1919.4,143.645 1920.9,143.645C1923.06,143.645 1925.02,144.033 1926.79,144.809C1928.56,145.585 1930.04,146.641 1931.25,147.977L1927.31,152.115Z" style="fill:rgb(234,245,255);"/>
                    <path d="M1953.3,179.207L1947.09,179.207L1947.09,165.241L1934.55,144.55L1941.53,144.55L1950.39,160.262L1959.25,144.55L1965.91,144.55L1953.3,165.241L1953.3,179.207Z" style="fill:rgb(234,245,255);"/>
                    <path d="M1987.96,152.115C1987.22,151.167 1986.25,150.402 1985.05,149.82C1983.84,149.238 1982.55,148.947 1981.17,148.947C1979.61,148.947 1978.29,149.346 1977.19,150.143C1976.09,150.94 1975.54,152.094 1975.54,153.602C1975.54,154.378 1975.68,155.035 1975.96,155.574C1976.24,156.113 1976.65,156.576 1977.19,156.964C1977.73,157.352 1978.38,157.708 1979.16,158.031C1979.94,158.355 1980.82,158.667 1981.81,158.969C1983.02,159.357 1984.24,159.809 1985.47,160.327C1986.69,160.844 1987.79,161.491 1988.76,162.266C1989.73,163.042 1990.52,164.001 1991.12,165.144C1991.73,166.286 1992.03,167.676 1992.03,169.314C1992.03,171.168 1991.71,172.773 1991.06,174.131C1990.41,175.489 1989.53,176.61 1988.41,177.493C1987.29,178.377 1985.99,179.034 1984.53,179.466C1983.06,179.897 1981.49,180.112 1979.81,180.112C1977.35,180.112 1975.06,179.638 1972.92,178.69C1970.79,177.741 1969.05,176.427 1967.72,174.745L1971.98,170.801C1973.02,172.181 1974.27,173.172 1975.73,173.776C1977.2,174.379 1978.6,174.681 1979.94,174.681C1981.58,174.681 1982.99,174.304 1984.17,173.549C1985.36,172.795 1985.95,171.642 1985.95,170.09C1985.95,168.366 1985.29,167.073 1983.98,166.211C1982.66,165.348 1980.8,164.551 1978.38,163.818C1977.27,163.473 1976.17,163.064 1975.09,162.59C1974.01,162.116 1973.05,161.512 1972.21,160.779C1971.37,160.046 1970.69,159.141 1970.17,158.064C1969.66,156.986 1969.4,155.65 1969.4,154.055C1969.4,152.287 1969.74,150.746 1970.43,149.432C1971.12,148.117 1972.04,147.029 1973.18,146.166C1974.32,145.304 1975.63,144.669 1977.09,144.259C1978.56,143.85 1980.05,143.645 1981.55,143.645C1983.71,143.645 1985.67,144.033 1987.44,144.809C1989.21,145.585 1990.69,146.641 1991.9,147.977L1987.96,152.115Z" style="fill:rgb(234,245,255);"/>
                    <path d="M2012.14,179.207L2005.93,179.207L2005.93,149.723L1995.33,149.723L1995.33,144.55L2022.87,144.55L2022.87,149.723L2012.14,149.723L2012.14,179.207Z" style="fill:rgb(234,245,255);"/>
                    <path d="M2034.96,173.97L2052.61,173.97L2052.61,179.207L2028.82,179.207L2028.82,144.55L2051.84,144.55L2051.84,149.723L2034.96,149.723L2034.96,158.84L2050.93,158.84L2050.93,163.818L2034.96,163.818L2034.96,173.97Z" style="fill:rgb(234,245,255);"/>
                    <path d="M2080.16,169.314L2080.29,169.314L2089.47,144.55L2098.39,144.55L2098.39,179.207L2092.31,179.207L2092.31,152.762L2092.18,152.762L2082.03,179.207L2077.89,179.207L2067.81,152.762L2067.68,152.762L2067.68,179.207L2061.6,179.207L2061.6,144.55L2070.78,144.55L2080.16,169.314Z" style="fill:rgb(234,245,255);"/>
                </g>
            </g>
        </g>
    </g>
</svg>
